<svg xmlns="http://www.w3.org/2000/svg" width="1280" height="720" viewBox="0 0 1280 720">
  <rect width="1280" height="720" fill="#f1efeb"/>
  <!-- a glyph "E" dissolving into grid cells, left crisp, right dispersing -->
  <g fill="#201d1a">
    <rect x="360" y="200" width="36" height="36"/><rect x="400" y="200" width="36" height="36"/><rect x="440" y="200" width="36" height="36"/><rect x="480" y="200" width="36" height="36"/><rect x="520" y="200" width="36" height="36"/>
    <rect x="360" y="240" width="36" height="36"/>
    <rect x="360" y="280" width="36" height="36"/>
    <rect x="360" y="320" width="36" height="36"/><rect x="400" y="320" width="36" height="36"/><rect x="440" y="320" width="36" height="36"/><rect x="480" y="320" width="36" height="36"/>
    <rect x="360" y="360" width="36" height="36"/>
    <rect x="360" y="400" width="36" height="36"/>
    <rect x="360" y="440" width="36" height="36"/><rect x="400" y="440" width="36" height="36"/><rect x="440" y="440" width="36" height="36"/><rect x="480" y="440" width="36" height="36"/><rect x="520" y="440" width="36" height="36"/>
  </g>
  <!-- dispersing cells -->
  <g fill="#201d1a">
    <rect x="600" y="212" width="36" height="36" opacity="0.85"/>
    <rect x="660" y="188" width="36" height="36" opacity="0.6"/>
    <rect x="640" y="300" width="36" height="36" opacity="0.7"/>
    <rect x="710" y="260" width="36" height="36" opacity="0.45"/>
    <rect x="700" y="360" width="36" height="36" opacity="0.55"/>
    <rect x="770" y="330" width="36" height="36" opacity="0.3"/>
    <rect x="760" y="430" width="36" height="36" opacity="0.4"/>
    <rect x="830" y="400" width="36" height="36" opacity="0.25"/>
    <rect x="820" y="250" width="36" height="36" opacity="0.3"/>
    <rect x="890" y="300" width="36" height="36" opacity="0.2"/>
    <rect x="880" y="460" width="36" height="36" opacity="0.18"/>
    <rect x="950" y="380" width="36" height="36" opacity="0.15"/>
    <rect x="940" y="220" width="36" height="36" opacity="0.12"/>
    <rect x="620" y="440" width="36" height="36" opacity="0.5"/>
  </g>
  <circle cx="900" cy="330" r="120" fill="none" stroke="#3a5a8c" stroke-width="4" stroke-dasharray="10 12"/>
  <circle cx="900" cy="330" r="6" fill="#3a5a8c"/>
</svg>
