<svg xmlns="http://www.w3.org/2000/svg" width="1280" height="720" viewBox="0 0 1280 720">
  <rect width="1280" height="720" fill="#f1efeb"/>
  <!-- printer body -->
  <rect x="400" y="330" width="480" height="260" rx="24" fill="#201d1a"/>
  <rect x="440" y="370" width="400" height="18" rx="9" fill="#f1efeb"/>
  <circle cx="840" cy="550" r="10" fill="#5a7a4c"/>
  <!-- receipt -->
  <path d="M480 372 L 800 372 L 800 120 L 770 140 L 740 120 L 710 140 L 680 120 L 650 140 L 620 120 L 590 140 L 560 120 L 530 140 L 500 120 L 480 136 Z" fill="#ffffff" stroke="#c9c4bb" stroke-width="3"/>
  <!-- dot-matrix text lines -->
  <g fill="#201d1a">
    <rect x="520" y="180" width="200" height="10" rx="5"/>
    <rect x="520" y="210" width="240" height="10" rx="5"/>
    <rect x="520" y="240" width="150" height="10" rx="5"/>
    <rect x="520" y="286" width="240" height="10" rx="5" fill="#3a5a8c"/>
    <rect x="520" y="316" width="180" height="10" rx="5"/>
  </g>
  <!-- wifi waves -->
  <g fill="none" stroke="#3a5a8c" stroke-width="6" stroke-linecap="round">
    <path d="M950 300 a 60 60 0 0 1 60 -60"/>
    <path d="M950 300 a 100 100 0 0 1 100 -100"/>
    <path d="M950 300 a 140 140 0 0 1 140 -140"/>
  </g>
  <circle cx="950" cy="300" r="8" fill="#3a5a8c"/>
</svg>
